<svg id="Layer_1" xmlns="http://www.w3.org/2000/svg" viewBox="0 0 10 10"><style>.st0{fill:#f8f9fa}</style><title>Icons</title><path class="st0" d="M3 5.2c-.7 0-1.2-.5-1.2-1.2S2.3 2.8 3 2.8s1.2.5 1.2 1.2S3.6 5.2 3 5.2zM3 3c-.6 0-1 .4-1 1s.4 1 1 1 1-.4 1-1-.5-1-1-1zM1.7 8.3c-.1 0-.1 0-.1-.1V7.1c0-.1.1-.1.1-.1s.1 0 .1.1v1.1c.1 0 0 .1-.1.1z"/><path class="st0" d="M.8 8.3c-.1 0-.1 0-.1-.1v-2c0-.5.4-1 1-1h.1c.7.7 1.8.7 2.5 0l1.5-1.5c.1-.1.2-.2.4-.2.3 0 .6.3.6.6 0 .1-.1.3-.2.4l-2 2c-.2.2-.3.5-.3.8v.9c0 .1 0 .1-.1.1H.8zm.8-2.9c-.4 0-.7.4-.7.8v1.9h3.2v-.8c0-.4.2-.7.4-1l1.9-1.9c.1-.1.1-.4 0-.5 0-.1-.1-.2-.2-.2s-.2 0-.3.1L4.4 5.4c-.8.8-2 .8-2.8 0zm4.9-1z"/><path class="st0" d="M8.7 6.7H4.4c-.1 0-.1 0-.1-.1v-.1c0-.1.1-.2.2-.2l1.9-1.9c.1-.1.1-.4 0-.5-.1-.1-.4-.1-.5 0L4.4 5.4C4 5.8 3.5 6 3 6c-.1 0-.1 0-.1-.1v-.8c0-.1 0-.1.1-.1.6 0 1-.4 1-1s-.4-1-1-1c-.1 0-.1 0-.1-.1v-.6c0-.4.3-.6.6-.6h5.2c.4 0 .6.3.6.6V6c.1.4-.2.7-.6.7zm-4.1-.2h4.1c.2 0 .4-.2.4-.4V2.3c0-.2-.2-.4-.4-.4H3.5c-.2 0-.4.2-.4.4v.4c.7.1 1.2.6 1.1 1.3-.1.6-.5 1-1.1 1.1v.6c.4 0 .9-.2 1.2-.5l1.5-1.5c.1-.1.2-.2.4-.2.3 0 .6.3.6.6 0 .1-.1.3-.2.4l-2 2z"/></svg>