<svg id="Layer_1" xmlns="http://www.w3.org/2000/svg" viewBox="0 0 10 10"><style>.st0{fill:#f8f9fa}</style><title>Icons</title><path class="st0" d="M2.3 3.5c.3-.1.6-.2.9-.2.3-.1.7 0 1 .2.3.2.3.3.3.6s-.2.7-.5.8c.5.1.8.4.9.9 0 .3-.1.6-.3.8-.4.3-.8.4-1.2.4h-.8l-.3-3.5zM3 4.9h.4c.5-.1.8-.3.7-.7 0-.4-.3-.6-.8-.5-.3 0-.3 0-.5.1L3 4.9zm0 1.8h.4c.6-.1 1-.3.9-.8 0-.6-.4-.8-.9-.7H3v1.5zm2.3.2v-.7L5 3h.5l.2 1.6c.1-.4.5-.5.8-.6.7-.1 1.2.4 1.2 1.3.1.7-.3 1.4-1 1.5h-.1c-.3.1-.7-.1-.9-.4v.4l-.4.1zm.4-1.1V6c.2.3.4.5.8.5.5-.1.7-.6.6-1.2-.1-.5-.3-.9-.8-.9-.3 0-.6.3-.7.7v.2l.1.5z"/><path class="st0" d="M8 9.2H2C1.3 9.2.8 8.7.8 8V2c0-.7.6-1.3 1.3-1.3H8c.7 0 1.3.6 1.3 1.3v6c-.1.7-.6 1.2-1.3 1.2zM2 1c-.6 0-1 .4-1 1v6c0 .6.4 1 1 1h6c.6 0 1-.4 1-1V2c0-.6-.4-1-1-1H2z"/></svg>