<svg id="Layer_1" xmlns="http://www.w3.org/2000/svg" viewBox="0 0 10 10"><style>.st0{fill:#f8f9fa}</style><title>Icons</title><path class="st0" d="M7.9 5H6.1c-.1 0-.1.1-.1.1 0 .1 0 .1.1.1h1.8c.1 0 .1 0 0-.2.1.1.1 0 0 0zm0 .6H6.1c-.1 0-.1.1-.1.1 0 .1 0 .1.1.1h1.8c.1 0 .1 0 0-.2.1.1.1 0 0 0zm0 .7H6.1c-.1 0-.1 0-.1.1s0 .1.1.1h1.8c.1-.1.1-.1 0-.2.1 0 .1 0 0 0zm0 .6H6.1c-.1 0-.1 0-.1.1 0 0 0 .1.1.1h1.8c.1 0 .1-.1 0-.2.1 0 .1 0 0 0zm0 .6H6.1c-.1 0-.1 0-.1.1s0 .1.1.1h1.8c.1 0 .1-.1 0-.2.1 0 .1 0 0 0zM3.5 6c.4 0 .7-.3.7-.7 0-.4-.3-.7-.7-.7-.4 0-.7.3-.7.7 0 .4.3.7.7.7zM3 5.3c0-.3.2-.5.5-.5s.5.2.5.5-.2.5-.5.5-.5-.2-.5-.5zm1.2.7c-.4.4-1 .4-1.4 0h-.1c-.3 0-.5.2-.5.5v1.1s0 .1.1.1h2.5s.1 0 .1-.1V6.5c-.1-.3-.3-.5-.7-.5zm.4.5v1H2.4v-1c0-.2.2-.4.4-.4.4.4 1.1.4 1.6 0 .1 0 .2.2.2.4z"/><path class="st0" d="M8 2.7H5.5V1.4c0-.1 0-.1-.1-.1h-.9c-.1 0-.1 0-.1.1v1.2H1.9c-.3 0-.5.2-.5.5V8c0 .3.2.5.5.5H8c.3 0 .5-.2.5-.5V3.2c0-.3-.2-.5-.5-.5zM4.6 1.5h.7v2h-.7v-2zm-.1 2.2h.9c.1 0 .1 0 .1-.1v-.2h.1c.2 0 .3.1.3.3 0 .2-.1.3-.3.3H4.3c-.2-.1-.3-.2-.3-.4s.1-.3.3-.3h.1l.1.4c-.1 0-.1 0 0 0zm3.8 4.4c0 .2-.1.3-.3.3H1.9c-.2 0-.3-.1-.3-.3V3.2c0-.2.1-.3.3-.3h2.5v.3h-.1c-.3 0-.5.2-.5.4 0 .3.2.5.5.5h1.3c.2 0 .4-.2.4-.5s-.2-.4-.4-.4h-.1v-.3H8c.2 0 .3.1.3.3v4.9z"/></svg>