<svg id="icons" xmlns="http://www.w3.org/2000/svg" viewBox="0 0 10 10"><style>.st0{fill:#f8f9fa}</style><title>Prancheta 2</title><path class="st0" d="M3.4 4.7h-.9v.8h.8l.1-.8zm-.2.6h-.4v-.4h.4v.4zm1.5-.6h-.8v.8h.8v-.8zm-.2.6h-.4v-.4h.4v.4zM6 4.7h-.8v.8H6v-.8zm-.2.6h-.4v-.4h.4v.4zm1.5.2v-.8h-.8v.8h.8zm-.6-.6h.4v.4h-.4v-.4zm-4.2 2h.8v-.8h-.8v.8zm.2-.6h.4v.4h-.3l-.1-.4zm1.1.6h.8v-.8h-.7l-.1.8zm.2-.6h.5v.4h-.4L4 6.3zM1.9 4.2H8v1.5h.2v-4H7v-.1c0-.2-.2-.4-.4-.4s-.4.1-.4.4v.6c0 .2.2.4.4.4s.4-.2.4-.4v-.3h1.1V4H1.9V1.9H3v.3c0 .2.2.4.4.4s.4-.2.4-.4v-.6c0-.2-.2-.4-.4-.4s-.4.1-.4.4v.2H1.7V8h3.4v-.3H1.9V4.2zm4.9-2c0 .1-.1.2-.2.1-.1 0-.1-.1-.1-.1v-.6c0-.1.1-.2.2-.2s.2.1.2.2v.6zm-3.6-.6c0-.1.1-.2.2-.1.1 0 .1.1.1.1v.6c0 .1-.1.2-.2.1-.1 0-.1-.1-.1-.1v-.6zm2.8.3H4v-.2h2v.2zm1 4c-.9 0-1.7.8-1.6 1.7 0 .9.8 1.7 1.7 1.6.9 0 1.6-.8 1.6-1.7 0-.9-.7-1.6-1.7-1.6zM7 9c-.8 0-1.4-.7-1.4-1.5s.7-1.4 1.5-1.4 1.4.7 1.4 1.5S7.9 9 7 9zm0-2.7h.2v1.3l.8.8-.1.1-.9-.9V6.3z"/></svg>