<svg id="Layer_1" xmlns="http://www.w3.org/2000/svg" viewBox="0 0 10 10"><style>.st0{fill:#f8f9fa}</style><title>Icons</title><path class="st0" d="M6.5 3.4h-2c-.1 0-.2.1-.2.2s.1.2.2.2h2.1c.1 0 .2-.1.2-.2-.1-.2-.2-.2-.3-.2zM7.3 5H4.5c-.1 0-.2 0-.2.1s.1.2.2.2h2.9c.1 0 .2-.1.2-.2-.1-.1-.2-.1-.3-.1z"/><path class="st0" d="M7.9 1.3h-4c-.6 0-1.1.5-1.1 1.1v2.4h-.7c-.6-.1-1.1.4-1.1 1v1.8c0 .6.5 1.1 1.1 1.1h5.6c.7 0 1.3-.6 1.3-1.3v-5c0-.6-.5-1.1-1.1-1.1zM2.8 7.6c0 .4-.3.8-.8.8-.3 0-.7-.4-.7-.8V5.8c0-.4.4-.8.8-.8h.8l-.1 2.6zm5.9-.2c0 .5-.4 1-1 1H2.8l.1-.1c.1-.2.2-.4.2-.6V2.4c0-.4.3-.8.8-.8h4c.4 0 .8.3.8.8v5z"/><path class="st0" d="M6.5 6.4h-2c-.1 0-.2.1-.2.2s.1.2.2.2h2.1c.1 0 .2-.1.2-.2-.1-.1-.2-.2-.3-.2z"/></svg>