<svg id="icons" xmlns="http://www.w3.org/2000/svg" viewBox="0 0 10 10"><style>.st0{fill:#f8f9fa}</style><title>Prancheta 2 cópia 3</title><path class="st0" d="M6.9 4.7H3.1v.2h3.8z"/><path class="st0" d="M7.9 7.3V3H5v.2h2.7v3.9H6.4v1.3H2.3V3.3h.8V3h-1v5.7h4.4l1.4-1.4zm-1.3 0h1l-1 1v-1z"/><path transform="rotate(-45.001 3.164 3.786)" class="st0" d="M2.7 3.7h.9v.2h-.9z"/><path class="st0" d="M3.1 5.7h3.7v.2H3.1zm0 1.1H5V7H3.1zm1.7-5.5l-.9.9-1 .3 1.6 1.6.3-1 .9-.9-.9-.9zm-.4 2.4L3.3 2.6l.7-.2.6.6-.2.7zm.3-.8l-.6-.6.7-.7.6.6-.7.7z"/></svg>