<svg id="icons" xmlns="http://www.w3.org/2000/svg" viewBox="0 0 10 10"><style>.st0{fill:#f8f9fa}</style><title>Prancheta 2 cópia 2</title><path class="st0" d="M2 8.1h1.5V5.5H2v2.6zm1.3-2.4v2.2H2.2V5.7h1.1zm3.5 0V6l-.1.3v1.1c0 .3-.2.5-.5.5H4.8l-.4-.3h-.8v-.2h.8l.4.3h1.3c.2 0 .3-.1.3-.3v-.1h-.3v-.2h.4v-.3h-.4v-.2h.4v-.2h-.4v-.2h.4l.1-.2c0-.5.1-.4-.5-.4 0 .2-.1.4-.3.4h-.7c-.2 0-.3-.2-.4-.3v-.4h-.1c-.2 0-.4.2-.4.4-.1.4-.3.4-.6.4v-.2c.2 0 .2 0 .3-.2 0-.3.3-.6.6-.6h.2v-.4h.2v.9c0 .1.1.2.2.2h.7c.1 0 .2-.1.2-.2v-.9h.2v.7h.4c.1 0 .2.1.2.3zM5.9 8h.2v.2c0 .3-.2.5-.5.5h-.4c-.3 0-.5-.2-.5-.5V8h.2v.2c0 .1.1.3.3.3h.5c.1 0 .3-.1.3-.3V8zM8 1.3v3.1h-.2V1.5H3.1v2.8h4.5v.2H2.9V1.3H8zM3 7.6h-.2v-.3H3v.3z"/><path class="st0" d="M5.3 3.3c0-.2 0-.4.2-.5.1-.1.2-.2.2-.3 0-.1-.1-.2-.2-.2s-.2 0-.2.1l-.2-.2c.1-.1.2-.1.3-.1.2 0 .4.1.4.3v.1c0 .2-.1.3-.2.4 0 .1-.1.2-.1.4v.1l-.2-.1zm0 .4c0-.1.1-.1.1-.2.1 0 .2.1.2.2s-.1.1-.2.1-.1 0-.1-.1z"/></svg>