<svg xmlns="http://www.w3.org/2000/svg" viewBox="0 0 8.85999 6.16669"><defs><style>.a{fill:#ed2241}.b{fill:#fff}</style></defs><title>email_4</title><path class="a" d="M7.35 0a1.51 1.51 0 1 0 1.51 1.51A1.51 1.51 0 0 0 7.35 0zm.423 1.951a.407.407 0 0 1-.175.142.637.637 0 0 1-.264.052.85.85 0 0 1-.253-.039.713.713 0 0 1-.214-.103l.096-.188a.554.554 0 0 0 .167.097.545.545 0 0 0 .187.033.346.346 0 0 0 .207-.054.17.17 0 0 0 .074-.146.162.162 0 0 0-.073-.143.377.377 0 0 0-.211-.05h-.19v-.145l.337-.328h-.53L6.928.874h.842v.15l-.385.368.067.007a.48.48 0 0 1 .278.107.297.297 0 0 1 .103.235.367.367 0 0 1-.061.21z"/><path d="M7.42 5.867H.3v-4.32h5.245c0-.013-.003-.025-.003-.038a1.783 1.783 0 0 1 .026-.262H0v4.92h7.72V3.28a1.816 1.816 0 0 1-.3.031z"/><path d="M3.9 3.977l-2.88-1.95-.17.25 3.08 2.09L5.991 2.69a1.81 1.81 0 0 1-.18-.244L3.91 3.986z"/><path class="b" d="M7.453 1.4l-.067-.008.385-.369v-.15H6.93l.001.206h.531l-.338.328v.145h.191a.377.377 0 0 1 .21.05.162.162 0 0 1 .074.143.17.17 0 0 1-.074.146.346.346 0 0 1-.207.054.545.545 0 0 1-.187-.033.554.554 0 0 1-.167-.097l-.096.188a.713.713 0 0 0 .214.103.85.85 0 0 0 .253.039.637.637 0 0 0 .264-.052.407.407 0 0 0 .175-.142.367.367 0 0 0 .061-.21.297.297 0 0 0-.103-.235.48.48 0 0 0-.278-.107z"/></svg>