<svg xmlns="http://www.w3.org/2000/svg" viewBox="0 0 8.85999 6.16669"><defs><style>.a{fill:#ed2241;}.b{fill:#fff;}</style></defs><title>email_4</title><path class="a" d="M8.49078,1.29333A1.50919,1.50919,0,1,0,10,2.80255,1.50919,1.50919,0,0,0,8.49078,1.29333ZM8.913,3.24451a.4068.4068,0,0,1-.17462.14221.63712.63712,0,0,1-.26459.05127.85018.85018,0,0,1-.25305-.0387.71282.71282,0,0,1-.21332-.10345l.0954-.18726a.55448.55448,0,0,0,.16748.09631.54505.54505,0,0,0,.18719.03333.3457.3457,0,0,0,.20618-.05408.17065.17065,0,0,0,.07471-.14575.16177.16177,0,0,0-.07385-.14313.37651.37651,0,0,0-.21051-.0495H8.26306V2.69989l.33844-.32764H8.07043l-.00177-.2052h.84253v.14941l-.38531.36908.06665.00714a.47969.47969,0,0,1,.27808.10626.29735.29735,0,0,1,.10358.23578A.36736.36736,0,0,1,8.913,3.24451Z" transform="translate(-1.14001 -1.29333)"/><path d="M8.56,7.16H1.44V2.84H6.68542c-.00024-.01276-.00378-.02466-.00378-.03748A1.78256,1.78256,0,0,1,6.70819,2.54H1.14V7.46H8.86V4.57336a1.81582,1.81582,0,0,1-.3.03137Z" transform="translate(-1.14001 -1.29333)"/><path d="M5.04,5.27,2.16,3.32l-.17.25L5.07,5.66,7.131,3.98285a1.80918,1.80918,0,0,1-.18024-.24365L5.05,5.28Z" transform="translate(-1.14001 -1.29333)"/><path class="b" d="M8.59253,2.69269l-.06665-.00714.38531-.36908V2.16705H8.06866l.00177.2052H8.6015l-.33844.32764v.14587H8.454a.37651.37651,0,0,1,.21051.0495.16177.16177,0,0,1,.07385.14313.17065.17065,0,0,1-.07471.14575.3457.3457,0,0,1-.20618.05408.54505.54505,0,0,1-.18719-.03333.55448.55448,0,0,1-.16748-.09631l-.0954.18726a.71282.71282,0,0,0,.21332.10345.85018.85018,0,0,0,.25305.0387.63712.63712,0,0,0,.26459-.05127A.4068.4068,0,0,0,8.913,3.24451a.36736.36736,0,0,0,.06122-.20978A.29735.29735,0,0,0,8.87061,2.799.47969.47969,0,0,0,8.59253,2.69269Z" transform="translate(-1.14001 -1.29333)"/></svg>